<svg width="123" height="123" viewBox="0 0 123 123" fill="none" xmlns="http://www.w3.org/2000/svg">
<path d="M122 61C122 94.6894 94.6894 122 61 122C27.3106 122 0 94.6894 0 61C0 27.3106 27.3106 0 61 0C94.6894 0 122 27.3106 122 61Z" fill="#C4C4C4"/>
<path fill-rule="evenodd" clip-rule="evenodd" d="M7.87244 91.2849C14.1253 68.0787 35.3182 51 60.5 51C85.6819 51 106.875 68.0788 113.128 91.2851C103.148 110.148 83.3251 123 60.5001 123C37.675 123 17.8517 110.148 7.87244 91.2849Z" fill="white"/>
<path d="M82 27.5C82 38.8218 72.8218 48 61.5 48C50.1782 48 41 38.8218 41 27.5C41 16.1782 50.1782 7 61.5 7C72.8218 7 82 16.1782 82 27.5Z" fill="white"/>
<path fill-rule="evenodd" clip-rule="evenodd" d="M122.621 97.7227V112.82H114.125V121.373H99.0273V112.82H90.5312V97.7227H99.0273V89.2266H114.125V97.7227H122.621ZM117.621 102.723H109.125V94.2266H104.027V102.723H95.5312V107.82H104.027V116.373H109.125V107.82H117.621V102.723Z" fill="#C4C4C4"/>
<path d="M117.621 102.723V107.82H109.125V116.373H104.027V107.82H95.5312V102.723H104.027V94.2266H109.125V102.723H117.621Z" fill="#7B61FF"/>
</svg>
