<svg width="106" height="20" viewBox="0 0 106 20" fill="none" xmlns="http://www.w3.org/2000/svg">
<path d="M0 20V2H2.72721L6.1635 11.6037C6.38168 12.2256 6.59077 12.8567 6.79076 13.497C7.00894 14.1189 7.22712 14.7409 7.4453 15.3628H7.55438C7.77256 14.7409 7.97256 14.1189 8.15437 13.497C8.35437 12.8567 8.56345 12.2256 8.78163 11.6037L12.1634 2H14.9179V20H12.7906V10.0945C12.7906 9.28963 12.827 8.40244 12.8997 7.43293C12.9724 6.46341 13.0361 5.57622 13.0906 4.77134H12.9815L11.5634 8.85976L8.18164 18.189H6.68168L3.29993 8.85976L1.88178 4.77134H1.77269C1.82723 5.57622 1.88178 6.46341 1.93632 7.43293C2.00905 8.40244 2.04541 9.28963 2.04541 10.0945V20H0Z" fill="black"/>
<path d="M19.8149 20V2H30.1238V3.92073H22.0785V9.57317H28.8693V11.5213H22.0785V18.0518H30.3965V20H19.8149Z" fill="black"/>
<path d="M37.9057 20V3.92073H32.5058V2H45.5965V3.92073H40.1966V20H37.9057Z" fill="black"/>
<path d="M50.808 9.92988L49.9626 12.6738H55.3352L54.4897 9.92988C54.1625 8.92378 53.8534 7.92683 53.5625 6.93902C53.2716 5.93293 52.9807 4.90854 52.6898 3.86585H52.5807C52.308 4.90854 52.0262 5.93293 51.7353 6.93902C51.4444 7.92683 51.1353 8.92378 50.808 9.92988ZM45.3536 20L51.408 2H53.9716L60.026 20H57.5988L55.9079 14.5122H49.3898L47.6717 20H45.3536Z" fill="black"/>
<path d="M62.5608 20V2H64.9062L71.3697 13.3049L73.306 17.0366H73.4151C73.3606 16.122 73.2969 15.1799 73.2242 14.2104C73.1697 13.2226 73.1424 12.253 73.1424 11.3018V2H75.2969V20H72.9515L66.4607 8.66768L64.5244 4.96341H64.4153C64.488 5.87805 64.5517 6.81098 64.6062 7.7622C64.6789 8.69512 64.7153 9.63719 64.7153 10.5884V20H62.5608Z" fill="black"/>
<path d="M80.2185 20V2H90.5273V3.92073H82.482V9.57317H89.2728V11.5213H82.482V18.0518H90.8V20H80.2185Z" fill="black"/>
<path d="M98.3093 20V3.92073H92.9094V2H106V3.92073H100.6V20H98.3093Z" fill="black"/>
<path d="M0 5H15V20H10V11H5V20H0V5Z" fill="black"/>
<path d="M7.5 0L15 5H0L7.5 0Z" fill="black"/>
<path d="M5 11H10V20H5V11Z" fill="black"/>
</svg>
