<svg width="418" height="217" viewBox="0 0 418 217" fill="none" xmlns="http://www.w3.org/2000/svg">
<path d="M75.5 22.5V31L142 9.5L208 46V36.5L142 0L75.5 22.5Z" fill="black"/>
<path d="M212 47.6522V53.5652L258.675 38.6087L305 64V57.3913L258.675 32L212 47.6522Z" fill="black"/>
<path d="M75.5 34.5V43L142.5 23.5L208 55.5V47.5L142.5 15L75.5 34.5Z" fill="black"/>
<path d="M212 55.4815V61.358L259.026 47.8765L305 70V64.4691L259.026 42L212 55.4815Z" fill="black"/>
<path d="M75.5 47V54.5L142.5 37.5L208 65V58L142.5 30L75.5 47Z" fill="black"/>
<path d="M212 64.6571V69.8L259.026 58.1429L305 77V72.2L259.026 53L212 64.6571Z" fill="black"/>
<path d="M75.5 60V66.5019L142.5 51.5019L208 75.5019V68.5019L142.5 45L75.5 60Z" fill="black"/>
<path d="M212 73.3272V77.8037L259.026 67.4764L305 84V79.1806L259.026 63L212 73.3272Z" fill="black"/>
<path d="M75.5 71.5V76.5L142.5 66L208 83.5V78.5L142.5 61L75.5 71.5Z" fill="black"/>
<path d="M212 81.4667V85.0222L259.026 77.5556L305 90V86.4444L259.026 74L212 81.4667Z" fill="black"/>
<path d="M75.5 84V88L142.5 80L208 93V89L142.5 76L75.5 84Z" fill="black"/>
<path d="M212 90.6471V93.4706L259.026 87.8235L305 97V94.1765L259.026 85L212 90.6471Z" fill="black"/>
<path d="M75 96V105H207.5V100.5L142 89L75 96Z" fill="black"/>
<path d="M212 98.8125V105H305V101.906L259.026 94L212 98.8125Z" fill="black"/>
<path d="M64.4238 134.113V193H56.5137V150.373L38.3203 169.797H36.2109L17.5781 150.373V193H9.66797V134.113H12.1289L37.2656 161.096L61.9629 134.113H64.4238ZM120.322 159.074V166.545H91.6699V185.529H124.102V193H83.7598V134.113H124.102V141.584H91.6699V159.074H120.322ZM182.285 134.113V141.584H161.982V192.736H154.072V141.584H133.77V134.113H182.285ZM210.146 134.113L237.656 193H228.164L222.012 178.938H194.414L188.174 193H178.682L206.191 134.113H210.146ZM208.301 147.473L197.666 171.467H218.76L208.301 147.473ZM297.334 134.113V193H294.346L256.113 150.9V193H248.203V134.113H251.191L289.424 176.74V134.113H297.334ZM353.232 159.074V166.545H324.58V185.529H357.012V193H316.67V134.113H357.012V141.584H324.58V159.074H353.232ZM415.195 134.113V141.584H394.893V192.736H386.982V141.584H366.68V134.113H415.195Z" fill="black"/>
</svg>
