<svg width="407" height="193" viewBox="0 0 407 193" fill="none" xmlns="http://www.w3.org/2000/svg">
<path d="M85.5 22.5V31L152 9.5L218 46V36.5L152 0L85.5 22.5Z" fill="black"/>
<path d="M222 47.6522V53.5652L268.675 38.6087L315 64V57.3913L268.675 32L222 47.6522Z" fill="black"/>
<path d="M85.5 34.5V43L152.5 23.5L218 55.5V47.5L152.5 15L85.5 34.5Z" fill="black"/>
<path d="M222 55.4815V61.358L269.026 47.8765L315 70V64.4691L269.026 42L222 55.4815Z" fill="black"/>
<path d="M85.5 47V54.5L152.5 37.5L218 65V58L152.5 30L85.5 47Z" fill="black"/>
<path d="M222 64.6571V69.8L269.026 58.1429L315 77V72.2L269.026 53L222 64.6571Z" fill="black"/>
<path d="M85.5 60V66.5019L152.5 51.5019L218 75.5019V68.5019L152.5 45L85.5 60Z" fill="black"/>
<path d="M222 73.3272V77.8037L269.026 67.4764L315 84V79.1806L269.026 63L222 73.3272Z" fill="black"/>
<path d="M85.5 71.5V76.5L152.5 66L218 83.5V78.5L152.5 61L85.5 71.5Z" fill="black"/>
<path d="M222 81.4667V85.0222L269.026 77.5556L315 90V86.4444L269.026 74L222 81.4667Z" fill="black"/>
<path d="M85.5 84V88L152.5 80L218 93V89L152.5 76L85.5 84Z" fill="black"/>
<path d="M222 90.6471V93.4706L269.026 87.8235L315 97V94.1765L269.026 85L222 90.6471Z" fill="black"/>
<path d="M85 96V105H217.5V100.5L152 89L85 96Z" fill="black"/>
<path d="M222 98.8125V105H315V101.906L269.026 94L222 98.8125Z" fill="black"/>
<path d="M55.4238 134.113V193H47.5137V150.373L29.3203 169.797H27.2109L8.57812 150.373V193H0.667969V134.113H3.12891L28.2656 161.096L52.9629 134.113H55.4238Z" fill="black"/>
<path d="M111.322 159.074V166.545H82.6699V185.529H115.102V193H74.7598V134.113H115.102V141.584H82.6699V159.074H111.322Z" fill="black"/>
<path d="M173.285 134.113V141.584H152.982V192.736H145.072V141.584H124.77V134.113H173.285Z" fill="black"/>
<path d="M201.146 134.113L228.656 193H219.164L213.012 178.938H185.414L179.174 193H169.682L197.191 134.113H201.146ZM199.301 147.473L188.666 171.467H209.76L199.301 147.473Z" fill="black"/>
<path d="M288.334 134.113V193H285.346L247.113 150.9V193H239.203V134.113H242.191L280.424 176.74V134.113H288.334Z" fill="black"/>
<path d="M344.232 159.074V166.545H315.58V185.529H348.012V193H307.67V134.113H348.012V141.584H315.58V159.074H344.232Z" fill="black"/>
<path d="M406.195 134.113V141.584H385.893V192.736H377.982V141.584H357.68V134.113H406.195Z" fill="black"/>
</svg>
